<svg width="159" height="32" viewBox="0 0 159 32" fill="none" xmlns="http://www.w3.org/2000/svg">
<g id="Group 56">
<path id="Vector" d="M147.837 0.449707L144.92 11.4498C144.312 13.7435 145.679 16.1256 147.96 16.737L158.863 19.6715C159.166 18.4783 158.618 17.2261 157.526 16.678L151.632 13.7435C150.084 13.0098 149.17 11.3908 149.321 9.70853L149.777 3.2029C149.869 1.92117 149.047 0.757491 147.833 0.453923" fill="#FABD00"/>
<path id="Vector_2" d="M150.937 11.4499C151.333 12.1541 151.97 12.6726 152.67 12.9172C152.851 12.9804 153.066 12.9804 153.247 12.8539L156.254 11.1126C157.409 10.4423 157.805 8.91178 157.076 7.75231C156.376 6.65188 154.921 6.34831 153.825 7.01869L150.878 8.73048C150.697 8.82324 150.574 9.00453 150.545 9.21956C150.393 9.95318 150.515 10.7458 150.941 11.4499" fill="#FABD00"/>
<path id="Vector_3" d="M127.486 11.1716L138.423 14.1061C140.7 14.7174 143.069 13.343 143.677 11.0493L146.594 0.0829313C145.409 -0.220637 144.166 0.327472 143.618 1.42791L140.7 7.35592C139.971 8.91592 138.36 9.83084 136.69 9.67906L130.218 9.21949C128.941 9.15624 127.79 9.95311 127.486 11.1758" fill="#40C1EF"/>
<path id="Vector_4" d="M138.423 8.08534C139.122 7.68902 139.637 7.04815 139.881 6.34404C139.94 6.16274 139.94 5.94772 139.822 5.7622L138.09 2.73917C137.423 1.57971 135.901 1.18338 134.75 1.91279C133.658 2.6169 133.355 4.07993 134.021 5.18036L135.724 8.14437C135.817 8.32988 135.998 8.45215 136.209 8.48167C136.938 8.60394 137.727 8.48167 138.427 8.08534" fill="#40C1EF"/>
<path id="Vector_5" d="M138.178 31.5528L141.095 20.5527C141.703 18.2591 140.336 15.8769 138.055 15.2655L127.152 12.3311C126.849 13.5242 127.397 14.7765 128.489 15.3246L134.383 18.2591C135.93 18.9927 136.845 20.6117 136.694 22.294L136.238 28.7996C136.146 30.0814 136.968 31.245 138.182 31.5486" fill="#8FC745"/>
<path id="Vector_6" d="M135.079 20.5527C134.683 19.8486 134.046 19.33 133.346 19.0855C133.165 19.0222 132.95 19.0222 132.769 19.1487L129.762 20.89C128.607 21.5604 128.211 23.0909 128.94 24.2504C129.64 25.3508 131.099 25.6544 132.191 24.984L135.138 23.2722C135.319 23.1794 135.442 22.9981 135.471 22.7831C135.623 22.0495 135.501 21.2568 135.075 20.5527" fill="#8FC745"/>
<path id="Vector_7" d="M158.53 20.8269L147.593 17.8924C145.316 17.281 142.947 18.6555 142.339 20.9491L139.422 31.9155C140.607 32.2233 141.85 31.671 142.399 30.5706L145.316 24.6426C146.046 23.0826 147.656 22.1676 149.326 22.3194L155.798 22.779C157.075 22.8422 158.226 22.0454 158.534 20.8227" fill="#FF564D"/>
<path id="Vector_8" d="M147.593 23.9131C146.893 24.3094 146.379 24.9503 146.134 25.6544C146.075 25.8357 146.075 26.0507 146.194 26.2362L147.926 29.2635C148.593 30.4229 150.115 30.8235 151.266 30.0899C152.358 29.3858 152.661 27.9227 151.995 26.8223L150.292 23.8583C150.199 23.6728 150.018 23.5505 149.807 23.521C149.077 23.3987 148.289 23.521 147.589 23.9173" fill="#FF564D"/>
<path id="Vector_9" d="M39.0001 9.21522C40.4294 10.5897 41.1588 12.6683 41.1588 15.3878V25.8061C41.1588 26.0211 40.9775 26.2024 40.7624 26.2024H37.1491C36.9383 26.2024 36.7528 26.0211 36.7528 25.8061V15.9696C36.7528 14.3211 36.3565 13.0689 35.5976 12.2425C34.8387 11.4161 33.7129 10.9903 32.2878 10.9903C30.6772 10.9903 29.3997 11.4793 28.4595 12.4575C27.5193 13.4357 27.0639 14.8397 27.0639 16.6737V25.8103C27.0639 26.0253 26.8826 26.2066 26.6676 26.2066H23.0838C22.8688 26.2066 22.6875 26.0253 22.6875 25.8103V8.60809C22.6875 7.5709 23.9313 7.01857 24.6944 7.72268L26.8826 9.76755C27.612 8.88214 28.5228 8.24128 29.6148 7.78171C30.7068 7.32214 31.9548 7.11133 33.3503 7.11133C35.6608 7.14084 37.5708 7.81544 39.0001 9.21944" fill="#252428"/>
<path id="Vector_10" d="M49.5707 25.195C48.0234 24.3686 46.8049 23.2092 45.9574 21.7419C45.0762 20.2747 44.6504 18.5966 44.6504 16.7331C44.6504 14.8695 45.0762 13.2209 45.9574 11.7537C46.8386 10.2865 48.0234 9.15651 49.5412 8.33013C51.059 7.50375 52.8214 7.10742 54.7946 7.10742C56.6455 7.10742 58.2561 7.47423 59.6559 8.23737C60.9334 8.94148 61.9327 9.88591 62.6326 11.1381C62.7253 11.3194 62.6621 11.564 62.4808 11.6567L59.7445 13.2462C59.5632 13.339 59.3481 13.3095 59.2301 13.124C58.7115 12.3903 58.1044 11.8422 57.4087 11.4754C56.5865 11.0496 55.7095 10.8346 54.7651 10.8346C53.125 10.8346 51.7589 11.3827 50.6965 12.4536C49.634 13.5245 49.0859 14.958 49.0859 16.7331C49.0859 18.5081 49.634 19.9416 50.6965 21.0125C51.7589 22.0834 53.125 22.6316 54.7988 22.6316C55.7728 22.6316 56.6498 22.4165 57.4424 21.9907C58.1423 21.5944 58.7494 21.042 59.2638 20.3421C59.3861 20.1904 59.5969 20.1271 59.7824 20.2199L62.485 21.8094C62.6663 21.9317 62.7296 22.1467 62.6368 22.3617C61.9074 23.6139 60.9377 24.5921 59.6306 25.2962C58.2351 26.0593 56.6245 26.4557 54.7988 26.4557C52.8552 26.4557 51.1223 26.0298 49.5749 25.2035" fill="#252428"/>
<path id="Vector_11" d="M78.8226 21.042C79.8851 19.9711 80.4037 18.5376 80.4037 16.7626C80.4037 14.9875 79.8851 13.5835 78.8226 12.4831C77.7601 11.4122 76.4236 10.8641 74.813 10.8641C73.2024 10.8641 71.8659 11.4164 70.8329 12.4831C69.7999 13.554 69.2855 14.9875 69.2855 16.7626C69.2855 18.5376 69.7999 19.9416 70.8329 21.042C71.8659 22.113 73.2024 22.6611 74.813 22.6611C76.4236 22.6611 77.7897 22.113 78.8226 21.042ZM69.7114 25.195C68.1935 24.3686 67.0088 23.2092 66.1571 21.7419C65.3054 20.2747 64.8838 18.5966 64.8838 16.7331C64.8838 14.8695 65.3096 13.2209 66.1571 11.7537C67.0088 10.2865 68.1935 9.15651 69.7114 8.33013C71.2292 7.50375 72.9326 7.10742 74.8467 7.10742C76.7609 7.10742 78.4938 7.50375 80.0116 8.33013C81.5294 9.15651 82.7142 10.2865 83.5659 11.7537C84.4176 13.2209 84.8434 14.8695 84.8434 16.7331C84.8434 18.5966 84.4176 20.2452 83.5659 21.7419C82.7142 23.2092 81.5294 24.3686 80.0116 25.195C78.4938 26.0214 76.7609 26.4177 74.8467 26.4177C72.9326 26.4472 71.2334 26.0214 69.7114 25.195Z" fill="#252428"/>
<path id="Vector_12" d="M92.3397 26.2064C92.5505 26.2064 92.736 26.0251 92.736 25.8101V14.9027C92.736 13.5872 93.1324 12.6723 93.9208 11.9682C94.7092 11.2641 95.6832 10.8973 97.2305 10.8973C97.2305 10.8973 97.9599 10.8973 98.7484 10.99C98.9929 11.0195 99.1742 10.8383 99.1742 10.5937V7.75198C99.1742 7.57068 99.0224 7.38517 98.8411 7.35565C98.1117 7.23338 97.2305 7.14062 96.4421 7.14062C93.769 7.14062 91.9771 7.811 90.5183 9.12647C89.0595 10.4714 88.3301 12.4573 88.3301 15.1472V25.8101C88.3301 26.0251 88.5114 26.2064 88.7264 26.2064H92.3397Z" fill="#252428"/>
<path id="Vector_13" d="M6.13039 11.9053C7.10012 11.0789 8.28488 10.653 9.68466 10.653C11.0845 10.653 12.2987 11.0789 13.2685 11.9348C14.1201 12.6684 14.664 13.6171 14.9086 14.747H4.43125C4.70531 13.5875 5.25341 12.6389 6.1346 11.9053M17.9527 11.783C17.1305 10.3158 16.009 9.15629 14.5797 8.35942C13.1504 7.53304 11.5103 7.13672 9.68888 7.13672C7.86747 7.13672 6.16412 7.53304 4.70531 8.35942C3.21698 9.1858 2.09125 10.3453 1.24379 11.8125C0.425839 13.2798 0 14.9283 0 16.7624C0 18.5964 0.425839 20.2745 1.27752 21.7754C2.12919 23.2427 3.34346 24.4022 4.92455 25.2285C6.50563 26.0549 8.29753 26.4512 10.3635 26.4512C11.9741 26.4512 13.4329 26.2067 14.7062 25.6881C15.8909 25.2285 16.8649 24.5286 17.6828 23.6432C17.8051 23.4914 17.8051 23.2764 17.6828 23.1246L15.8277 20.987C15.6759 20.8352 15.4314 20.8057 15.2796 20.9575C14.0021 22.1507 12.3915 22.7283 10.4815 22.7283C8.87093 22.7283 7.50488 22.332 6.44239 21.5056C5.35039 20.6792 4.68001 19.5788 4.43547 18.2043H18.5556C18.8887 18.2043 19.1627 17.9598 19.1627 17.6225C19.1922 17.3189 19.1922 17.1039 19.1922 16.8888C19.1627 14.9325 18.7664 13.2545 17.9485 11.7872" fill="#252428"/>
<path id="Vector_14" d="M113.024 21.042C112.202 22.3237 109.925 23.2429 108.285 23.2429C107.159 23.2429 106.283 22.9983 105.642 22.5387C105.001 22.0792 104.701 21.4383 104.701 20.6457C104.701 18.9676 105.979 18.1412 108.5 18.1412H113.028V21.042H113.024ZM113.754 26.2069H117.004C117.219 26.2069 117.401 26.0256 117.401 25.8105V15.1477C117.401 12.4578 116.671 10.4424 115.212 9.12694C113.754 7.78196 111.266 7.04834 108.5 7.04834C106.738 7.04834 105.616 7.17061 104.398 7.35191C104.217 7.38142 104.065 7.56694 104.065 7.74823V10.5605C104.065 10.805 104.276 10.9863 104.52 10.9568C106.219 10.7122 110.018 10.2527 111.839 11.8422C112.628 12.5463 113.024 13.554 113.024 14.8652V15.1393H108.163C105.46 15.1393 103.483 15.6579 102.239 16.6655C100.995 17.7027 100.354 19.0477 100.354 20.7595C100.354 21.8304 100.629 22.8044 101.206 23.6603C101.784 24.5162 102.602 25.1865 103.635 25.6756C104.697 26.1647 105.911 26.4092 107.311 26.4092C109.074 26.4092 111.624 25.7389 113.294 24.0271V25.7684C113.357 26.0129 113.539 26.1942 113.749 26.1942" fill="#252428"/>
</g>
</svg>
